<svg xmlns="http://www.w3.org/2000/svg" width="1600" height="1200" viewBox="0 0 1600 1200" role="img" aria-label="Abstract map graphic">
  <defs>
    <linearGradient id="g" x1="0" y1="0" x2="1" y2="1">
      <stop offset="0" stop-color="#c5a36a" stop-opacity="0.35"/>
      <stop offset="0.55" stop-color="#ffffff" stop-opacity="0.06"/>
      <stop offset="1" stop-color="#7c8cff" stop-opacity="0.12"/>
    </linearGradient>
    <radialGradient id="r" cx="35%" cy="25%" r="70%">
      <stop offset="0" stop-color="#f3f0e8" stop-opacity="0.18"/>
      <stop offset="1" stop-color="#050506" stop-opacity="0"/>
    </radialGradient>
  </defs>
  <rect width="1600" height="1200" fill="#070708"/>
  <rect width="1600" height="1200" fill="url(#r)"/>
  <path d="M120 880 C 360 620, 520 980, 760 760 C 980 560, 1120 860, 1480 620" fill="none" stroke="url(#g)" stroke-width="3" opacity="0.85"/>
  <path d="M180 360 C 420 220, 620 520, 860 320 C 1080 140, 1260 420, 1460 260" fill="none" stroke="rgba(243,240,232,0.22)" stroke-width="2"/>
  <path d="M240 1040 L 520 780 L 820 980 L 1120 700 L 1380 900" fill="none" stroke="rgba(197,163,106,0.35)" stroke-width="2" stroke-dasharray="10 14"/>
  <circle cx="980" cy="520" r="10" fill="rgba(197,163,106,0.55)"/>
  <circle cx="620" cy="430" r="7" fill="rgba(255,255,255,0.22)"/>
  <circle cx="1210" cy="720" r="7" fill="rgba(255,255,255,0.18)"/>
</svg>
